<svg width="181" height="297" viewBox="0 0 181 297" fill="none" xmlns="http://www.w3.org/2000/svg">
<path fill-rule="evenodd" clip-rule="evenodd" d="M59.3769 1.14135C59.5581 1.76941 64.8358 17.4737 71.1044 36.0411L82.5027 69.7988L80.1973 70.7667C68.8159 75.5421 62.4726 88.9454 66.0261 100.71C67.2074 104.621 70.3362 109.639 72.9942 111.885C74.8222 113.43 74.9028 113.673 74.0923 115.194C71.3687 120.304 57.5242 131.633 49.8184 135.056L46.7227 136.431L44.4634 134.251C43.2205 133.052 41.7905 131.278 41.2853 130.309C39.8728 127.601 39.0429 122.538 39.5962 120.006C40.0151 118.087 40.6787 117.414 43.7757 115.766C51.8809 111.455 56.5994 104.196 57.1157 95.2404C58.4931 71.3459 28.4363 59.6709 13.7105 78.3805C6.82164 87.1329 6.47616 99.6173 12.889 108.055L15.158 111.04L12.1266 117.512C6.20082 130.164 4 138.902 4 149.773C4 162.41 7.14115 170.82 14.6911 178.396C23.6099 187.345 34.7354 191.153 47.7104 189.698C56.4858 188.714 66.8983 184.967 84.3405 176.517C108.246 164.935 112.454 163.444 127.8 161.116C142.385 158.905 148.737 156.919 155.293 152.522C162.437 147.731 167.746 140.198 169.937 131.744C171.513 125.663 171.009 116.507 168.798 111.037L167.15 106.96L168.808 102.884C171.045 97.3835 171.124 90.0502 169.005 84.5998C167.008 79.4611 161.703 73.7916 156.628 71.3713C154.474 70.3441 152.713 69.2966 152.713 69.0442C152.713 68.7912 153.576 66.1289 154.631 63.1269C155.685 60.1248 160.925 44.6931 166.274 28.8343L176 0H117.524C62.1395 0 59.0652 0.0606544 59.3769 1.14135ZM151.936 36.0339C147.288 49.7542 142.832 62.8882 142.034 65.2198C139.497 72.6411 139.45 72.5863 128.035 48.9513C122.499 37.4883 117.82 28.0947 117.637 28.0771C117.454 28.0588 112.635 37.4361 106.93 48.9148C101.224 60.3935 96.2225 69.7851 95.8154 69.7851C95.4082 69.7851 94.7854 69.418 94.4315 68.9699C93.9016 68.2988 74.7846 12.2457 74.7846 11.3632C74.7846 11.2113 94.0458 11.0874 117.587 11.0874H160.389L151.936 36.0339ZM123.466 65.1467L128.961 76.2719L127.24 78.0831C125.526 79.887 122.209 86.3334 122.197 87.8836C122.193 88.4497 120.928 88.6989 118.057 88.6989H113.923L112.55 84.9187C111.795 82.8402 110.099 79.8727 108.78 78.325L106.382 75.5114L111.816 64.5363C114.804 58.5002 117.412 53.6648 117.61 53.7913C117.808 53.9178 120.443 59.0278 123.466 65.1467ZM38.6812 81.6982C44.0309 84.7713 46.5344 90.2648 45.4388 96.5239C44.8518 99.8769 43.5822 101.811 40.1255 104.621C38.0675 106.294 37.022 106.634 33.2925 106.846C26.7621 107.216 22.265 104.568 19.9415 98.9827C17.9835 94.2778 19.042 87.8621 22.3767 84.2196C26.0575 80.1981 33.9464 78.9785 38.6812 81.6982ZM96.9395 82.1704C105.119 87.6325 105.119 99.5482 96.9395 105.01C95.2205 106.159 93.4607 106.643 90.3702 106.82C85.1211 107.12 81.2688 105.301 78.3563 101.147C76.6204 98.6723 76.4081 97.8486 76.4081 93.5904C76.4081 89.3322 76.6204 88.5084 78.3563 86.0333C81.2688 81.8801 85.1211 80.0612 90.3702 80.3612C93.4607 80.5373 95.2205 81.0219 96.9395 82.1704ZM151.209 80.9123C153.491 81.7764 157.04 85.1379 158.397 87.7206C158.984 88.8358 159.449 91.3814 159.479 93.6412C159.583 101.526 154.051 106.96 145.919 106.96C142.636 106.96 141.403 106.626 138.979 105.083C134.648 102.324 132.916 99.1379 132.91 93.9165C132.905 88.4386 134.536 85.1796 138.707 82.3399C141.336 80.549 142.407 80.2203 145.6 80.2203C147.68 80.2203 150.204 80.5321 151.209 80.9123ZM122.873 101.58C125.066 107.626 129.908 113.043 135.646 115.871C139.009 117.529 140.077 117.722 145.894 117.722C151.188 117.722 152.952 117.46 155.437 116.306L158.487 114.891L159.235 118.513C161.142 127.738 157.149 137.575 149.381 142.784C144.381 146.137 139.308 147.753 128.685 149.377C109.57 152.297 105.169 153.797 79.9798 165.978C62.5161 174.422 55.6409 177.029 47.8306 178.163C34.8504 180.048 23.0462 174.45 18.2407 164.131C14.4462 155.983 14.228 143.922 17.688 133.512C19.5226 127.994 24.5516 117.396 25.336 117.396C27.557 117.396 28.0278 118.251 28.0278 122.288C28.0278 131.533 32.9704 140.53 41.0158 145.927C45.9298 149.223 45.7999 149.231 54.4804 145.115C65.3371 139.967 76.1736 131.162 83.1761 121.798L85.9802 118.048H90.0994C94.9932 118.048 100.246 116.254 104.185 113.235C107.658 110.576 111.603 105.394 112.563 102.232L113.305 99.7862H117.764C122.037 99.7862 122.25 99.8606 122.873 101.58Z" fill="#99424F"/>
<path d="M35.1195 257.25C35.1195 261.25 34.6195 264.833 33.6195 268C32.6529 271.167 31.2029 273.85 29.2695 276.05C27.3695 278.217 25.0195 279.883 22.2195 281.05C19.4195 282.217 16.2029 282.8 12.5695 282.8C9.26953 282.8 5.90286 282.333 2.46953 281.4C2.5362 280.433 2.61953 279.483 2.71953 278.55C2.81953 277.583 2.90286 276.633 2.96953 275.7C3.0362 275.133 3.2362 274.683 3.56953 274.35C3.9362 273.983 4.4862 273.8 5.21953 273.8C5.81953 273.8 6.60286 273.95 7.56953 274.25C8.56953 274.55 9.90286 274.7 11.5695 274.7C13.7695 274.7 15.7362 274.367 17.4695 273.7C19.2029 273.033 20.6529 272 21.8195 270.6C22.9862 269.2 23.8695 267.417 24.4695 265.25C25.1029 263.05 25.4195 260.45 25.4195 257.45V210.35H35.1195V257.25ZM84.7469 251.15C84.7469 249.083 84.4469 247.2 83.8469 245.5C83.2802 243.767 82.4302 242.283 81.2969 241.05C80.1969 239.783 78.8469 238.817 77.2469 238.15C75.6469 237.45 73.8302 237.1 71.7969 237.1C67.5302 237.1 64.1469 238.35 61.6469 240.85C59.1802 243.317 57.6469 246.75 57.0469 251.15H84.7469ZM91.9469 274.9C90.8469 276.233 89.5302 277.4 87.9969 278.4C86.4635 279.367 84.8135 280.167 83.0469 280.8C81.3135 281.433 79.5135 281.9 77.6469 282.2C75.7802 282.533 73.9302 282.7 72.0969 282.7C68.5969 282.7 65.3635 282.117 62.3969 280.95C59.4635 279.75 56.9135 278.017 54.7469 275.75C52.6135 273.45 50.9469 270.617 49.7469 267.25C48.5469 263.883 47.9469 260.017 47.9469 255.65C47.9469 252.117 48.4802 248.817 49.5469 245.75C50.6469 242.683 52.2135 240.033 54.2469 237.8C56.2802 235.533 58.7635 233.767 61.6969 232.5C64.6302 231.2 67.9302 230.55 71.5969 230.55C74.6302 230.55 77.4302 231.067 79.9969 232.1C82.5969 233.1 84.8302 234.567 86.6969 236.5C88.5969 238.4 90.0802 240.767 91.1469 243.6C92.2135 246.4 92.7469 249.6 92.7469 253.2C92.7469 254.6 92.5969 255.533 92.2969 256C91.9969 256.467 91.4302 256.7 90.5969 256.7H56.7469C56.8469 259.9 57.2802 262.683 58.0469 265.05C58.8469 267.417 59.9469 269.4 61.3469 271C62.7469 272.567 64.4135 273.75 66.3469 274.55C68.2802 275.317 70.4469 275.7 72.8469 275.7C75.0802 275.7 76.9969 275.45 78.5969 274.95C80.2302 274.417 81.6302 273.85 82.7969 273.25C83.9635 272.65 84.9302 272.1 85.6969 271.6C86.4969 271.067 87.1802 270.8 87.7469 270.8C88.4802 270.8 89.0469 271.083 89.4469 271.65L91.9469 274.9ZM135.179 239.7C134.779 240.433 134.162 240.8 133.329 240.8C132.829 240.8 132.262 240.617 131.629 240.25C130.996 239.883 130.212 239.483 129.279 239.05C128.379 238.583 127.296 238.167 126.029 237.8C124.762 237.4 123.262 237.2 121.529 237.2C120.029 237.2 118.679 237.4 117.479 237.8C116.279 238.167 115.246 238.683 114.379 239.35C113.546 240.017 112.896 240.8 112.429 241.7C111.996 242.567 111.779 243.517 111.779 244.55C111.779 245.85 112.146 246.933 112.879 247.8C113.646 248.667 114.646 249.417 115.879 250.05C117.112 250.683 118.512 251.25 120.079 251.75C121.646 252.217 123.246 252.733 124.879 253.3C126.546 253.833 128.162 254.433 129.729 255.1C131.296 255.767 132.696 256.6 133.929 257.6C135.162 258.6 136.146 259.833 136.879 261.3C137.646 262.733 138.029 264.467 138.029 266.5C138.029 268.833 137.612 271 136.779 273C135.946 274.967 134.712 276.683 133.079 278.15C131.446 279.583 129.446 280.717 127.079 281.55C124.712 282.383 121.979 282.8 118.879 282.8C115.346 282.8 112.146 282.233 109.279 281.1C106.412 279.933 103.979 278.45 101.979 276.65L104.079 273.25C104.346 272.817 104.662 272.483 105.029 272.25C105.396 272.017 105.862 271.9 106.429 271.9C107.029 271.9 107.662 272.133 108.329 272.6C108.996 273.067 109.796 273.583 110.729 274.15C111.696 274.717 112.862 275.233 114.229 275.7C115.596 276.167 117.296 276.4 119.329 276.4C121.062 276.4 122.579 276.183 123.879 275.75C125.179 275.283 126.262 274.667 127.129 273.9C127.996 273.133 128.629 272.25 129.029 271.25C129.462 270.25 129.679 269.183 129.679 268.05C129.679 266.65 129.296 265.5 128.529 264.6C127.796 263.667 126.812 262.883 125.579 262.25C124.346 261.583 122.929 261.017 121.329 260.55C119.762 260.05 118.146 259.533 116.479 259C114.846 258.467 113.229 257.867 111.629 257.2C110.062 256.5 108.662 255.633 107.429 254.6C106.196 253.567 105.196 252.3 104.429 250.8C103.696 249.267 103.329 247.417 103.329 245.25C103.329 243.317 103.729 241.467 104.529 239.7C105.329 237.9 106.496 236.333 108.029 235C109.562 233.633 111.446 232.55 113.679 231.75C115.912 230.95 118.462 230.55 121.329 230.55C124.662 230.55 127.646 231.083 130.279 232.15C132.946 233.183 135.246 234.617 137.179 236.45L135.179 239.7ZM166.491 282.8C162.491 282.8 159.407 281.683 157.241 279.45C155.107 277.217 154.041 274 154.041 269.8V238.8H147.941C147.407 238.8 146.957 238.65 146.591 238.35C146.224 238.017 146.041 237.517 146.041 236.85V233.3L154.341 232.25L156.391 216.6C156.491 216.1 156.707 215.7 157.041 215.4C157.407 215.067 157.874 214.9 158.441 214.9H162.941V232.35H177.591V238.8H162.941V269.2C162.941 271.333 163.457 272.917 164.491 273.95C165.524 274.983 166.857 275.5 168.491 275.5C169.424 275.5 170.224 275.383 170.891 275.15C171.591 274.883 172.191 274.6 172.691 274.3C173.191 274 173.607 273.733 173.941 273.5C174.307 273.233 174.624 273.1 174.891 273.1C175.357 273.1 175.774 273.383 176.141 273.95L178.741 278.2C177.207 279.633 175.357 280.767 173.191 281.6C171.024 282.4 168.791 282.8 166.491 282.8Z" fill="#99424F"/>
</svg>
