<svg width="252" height="280" viewBox="0 0 252 280" fill="none" xmlns="http://www.w3.org/2000/svg">
<path fill-rule="evenodd" clip-rule="evenodd" d="M112.773 1.36191C90.7 6.71291 74.33 26.7689 69.52 54.3549C65.947 74.8439 69.256 95.4889 79.311 115.437C82.579 121.923 82.809 122.913 81.852 126.381C78.02 140.259 96.148 149.739 105.427 138.711C112.563 130.23 107.617 118.049 96.304 116.24C92.282 115.597 92.08 115.373 88.567 107.688C82.887 95.2629 80.662 84.5089 80.729 69.8069C80.822 49.3209 85.897 34.9379 96.99 23.7199C102.874 17.7689 109.464 14.5779 119.831 12.6619C137.71 9.35491 153.65 23.7739 159.807 48.8239C161.737 56.6749 161.983 56.8979 171.233 59.1659L173.966 59.8369L173.345 55.0719C171.108 37.9179 164.973 24.5409 154.612 14.2269C142.04 1.71291 128.5 -2.45109 112.773 1.36191ZM106.5 56.9739C97.705 61.8379 95.541 71.8929 101.84 78.6349C107.605 84.8069 116.715 84.5529 122.667 78.0549L125.911 74.5129L134.884 75.1909C168.391 77.7199 198.307 98.2529 206.162 124.114C211.364 141.242 203.969 158.18 188 165.713C183.032 168.056 181.388 168.3 171 168.231C161.993 168.171 158.289 167.707 153.915 166.091L148.33 164.028L143.165 168.053C140.324 170.266 138 172.434 138 172.87C138 175.231 159.775 180.823 168.838 180.79C188.452 180.717 208.89 168.815 216.19 153.216C223.85 136.846 219.486 115.255 204.878 97.2499C188.77 77.3959 163.36 65.0939 134.583 63.2179C126.078 62.6639 124.109 62.2079 122 60.3059C116.991 55.7879 110.98 54.4959 106.5 56.9739ZM48.579 93.0569C29.652 112.314 24.873 135.835 35.59 156.984C47.174 179.845 80.557 186.478 113.685 172.501C130.928 165.225 145.502 152.875 155.997 136.647C160.121 130.27 163.053 126.86 165.677 125.388C171.361 122.199 174.285 117.298 173.698 111.943C173.071 106.222 170.354 102.748 164.647 100.372C160.05 98.4579 159.949 98.4579 155.25 100.38C147.06 103.73 143.934 113.32 148.648 120.635C150.045 122.802 149.918 123.355 146.824 128.585C142.594 135.738 131.332 147.24 123.206 152.707C114.764 158.386 101.95 164.398 94.012 166.405C84.978 168.688 68.373 167.987 61.767 165.043C51.652 160.536 45.654 153.495 42.458 142.376C38.845 129.808 43.709 115.129 55.487 103.058L61.652 96.7399L60.097 90.7729C59.242 87.4919 58.125 84.8069 57.615 84.8069C57.105 84.8069 53.039 88.5199 48.579 93.0569ZM0 245.223V278.807H4H8V265.807V252.807L14.75 252.81L21.5 252.813L29.856 265.81L38.211 278.807H43.131H48.051L46.579 276.057C45.769 274.545 41.937 268.586 38.063 262.816L31.02 252.324L35.793 250.218C46.831 245.347 50.858 233.936 45.403 222.989C43.475 219.12 41.608 217.073 38.153 215.042C33.664 212.403 32.909 212.295 16.75 211.973L0 211.638V245.223ZM141 224.307C141 236.693 140.982 236.789 139.053 234.86C130.719 226.526 114.888 227.975 108.48 237.659C105.139 242.706 103.933 247.044 103.851 254.307C103.753 262.986 105.518 268.329 110.143 273.347C114.975 278.589 119.262 280.173 127.08 279.608C131.835 279.264 133.712 278.569 136.974 275.948L141 272.713V275.76C141 278.648 141.208 278.807 145 278.807H149V245.307V211.807H145H141V224.307ZM33.067 222.073C35.001 223.376 37.051 225.974 37.894 228.188C39.17 231.54 39.174 232.56 37.93 236.082C35.508 242.933 32.652 244.254 19.43 244.643L8 244.979V232.393V219.807H18.852C28.473 219.807 30.086 220.064 33.067 222.073ZM68.305 229.925C62.871 231.192 54.778 238.406 52.553 243.967C50.57 248.923 50.295 257.621 51.931 263.614C53.38 268.919 59.163 275.511 64.5 277.941C70.719 280.774 81.291 280.463 87.721 277.259C94.507 273.877 95.284 272.835 93.14 269.992L91.42 267.713L86.96 270.148C78.557 274.735 70.322 274.36 64.765 269.137C61.971 266.511 59 261.216 59 258.861C59 258.224 66.129 257.75 78.25 257.579L97.5 257.307L97.818 254.545C97.992 253.026 97.412 249.295 96.528 246.254C92.915 233.828 81.038 226.956 68.305 229.925ZM160.39 231.234C160.089 232.018 159.99 241.131 160.171 251.484C160.445 267.168 160.795 270.846 162.267 273.54C164.926 278.405 169.028 280.088 177.114 279.631C182.81 279.309 184.665 278.723 188.462 276.047L193 272.848V275.828C193 278.639 193.226 278.807 197.018 278.807H201.036L200.768 254.557L200.5 230.307L196.75 229.997L193 229.686V248.232V266.779L188.94 269.466C186.251 271.245 183.103 272.3 179.622 272.588C175.09 272.964 173.959 272.676 171.432 270.504L168.5 267.984L168.172 248.895L167.844 229.807H164.391C162.322 229.807 160.718 230.379 160.39 231.234ZM208 230.947C208 231.574 211.636 236.959 216.08 242.914C221.304 249.915 223.883 254.194 223.377 255.024C222.946 255.729 218.854 261.37 214.282 267.557L205.97 278.807H210.487H215.004L222.051 269.307C225.927 264.082 229.208 259.807 229.342 259.807C229.476 259.807 232.716 264.068 236.543 269.275C243.419 278.634 243.549 278.744 247.75 278.775C250.087 278.793 252 278.564 252 278.266C252 277.969 247.972 272.392 243.049 265.872L234.099 254.019L242.549 242.741C247.197 236.538 251 231.091 251 230.635C251 230.18 249.212 229.807 247.026 229.807C243.177 229.807 242.843 230.092 236.446 238.807C232.813 243.757 229.538 247.788 229.17 247.765C228.801 247.742 225.647 243.692 222.159 238.765C216.023 230.097 215.692 229.807 211.909 229.807C209.649 229.807 208 230.288 208 230.947ZM81.934 237.774C85.537 239.612 90 246.168 90 249.623C90 250.485 85.75 250.807 74.392 250.807H58.783L59.437 248.057C60.977 241.578 67.925 235.807 74.188 235.807C76.328 235.807 79.814 236.692 81.934 237.774ZM137.402 240.165L141 242.909V254.703C141 267.602 140.902 267.843 134.3 271.186C130.133 273.297 124.381 273.244 120 271.055C109.821 265.971 109.296 244.982 119.192 238.773C123.983 235.766 132.488 236.416 137.402 240.165Z" fill="#764EBC"/>
</svg>
