<svg viewBox="0 0 573 282" fill="none" xmlns="http://www.w3.org/2000/svg">
<path fill-rule="evenodd" clip-rule="evenodd" d="M142.443 238.471V279.941H148.753H155.064V238.471V197H148.753H142.443V238.471ZM119.324 199.697C116.65 200.777 114.495 204.119 114.495 207.186C114.495 210.274 118.854 215.031 121.683 215.031C127.763 215.031 131.82 209.052 129.318 203.778C127.322 199.572 123.501 198.012 119.324 199.697ZM259.062 199.697C253.872 201.792 252.751 208.278 256.868 212.396C260.851 216.378 266.585 215.402 269.227 210.292C271.048 206.774 269.488 201.984 265.922 200.14C263.028 198.643 261.862 198.568 259.062 199.697ZM391.266 215.441V230.275L389.133 228.142C384.915 223.923 379.615 221.95 372.301 221.876C366.382 221.816 364.74 222.183 359.577 224.725C348.865 229.999 342.992 240.46 343.692 253.021C344.594 269.185 356.369 281.152 371.433 281.214C378.769 281.245 383.315 279.702 387.778 275.671L391.266 272.519V276.231V279.941H397.577H403.888V240.274V200.606H397.577H391.266V215.441ZM15.5515 206.132L9.91689 207.883V215.514V223.145H4.95844H0V229.455V235.766H4.88812H9.77624L10.072 252.67C10.4001 271.444 11.0537 273.844 16.9047 277.787C20.0979 279.939 28.8798 281.257 33.8346 280.327L37.0432 279.726L36.7781 274.198L36.5122 268.672L30.8992 268.404C22.7241 268.014 22.5384 267.596 22.5384 249.539V234.864H29.7507H36.9629V229.005V223.145H29.7507H22.5384V213.678C22.5384 208.472 22.2346 204.25 21.8622 204.297C21.4899 204.343 18.651 205.169 15.5515 206.132ZM63.0633 222.516C54.8818 224.829 47.5533 231.235 43.9543 239.219C41.0271 245.714 41.1948 257.109 44.3168 263.822C47.6281 270.943 52.2088 275.648 58.6385 278.534C68.6654 283.034 80.4665 281.596 86.981 275.082L89.252 272.811V276.376V279.941H95.5627H101.873V251.543V223.145H95.5627H89.252V226.457V229.77L87.2235 227.911C81.4798 222.649 70.9274 220.292 63.0633 222.516ZM305.943 222.148C302.369 223.068 296.889 226.423 295.737 228.399C295.051 229.573 294.851 229.16 294.829 226.525L294.802 223.145H288.491H282.181V251.543V279.941H288.491H294.802L294.807 263.037C294.81 253.741 295.22 244.662 295.72 242.864C298.276 233.665 310.455 230.256 317.69 236.715L320.496 239.221L320.769 259.62L321.043 280.018L327.53 279.755L334.019 279.49L333.977 259.206C333.938 240.144 333.813 238.65 331.905 234.425C329.443 228.974 326.99 226.23 322.535 223.946C318.715 221.987 310.172 221.061 305.943 222.148ZM436.416 222.773C427.789 225.093 420.93 230.867 417.234 238.921C414.341 245.227 414.279 257.732 417.11 263.872C421.965 274.402 432.5 281.193 444.006 281.208C453.26 281.221 459.046 278.869 465.544 272.454C468.467 269.568 470.493 266.887 470.052 266.489C469.61 266.093 467.156 264.615 464.597 263.206L459.945 260.644L457.235 263.546C450.363 270.902 438.977 271.001 432.435 263.76C427.302 258.077 426.032 250.83 429.032 244.331C431.347 239.315 434.585 236.626 440 235.221C446.786 233.461 452.448 234.864 456.455 239.3L459.531 242.705L464.604 239.911C467.393 238.375 469.681 236.613 469.687 235.994C469.705 234.379 463.755 228.025 460.124 225.782C456.383 223.469 448.767 221.345 444.457 221.412C442.721 221.438 439.104 222.051 436.416 222.773ZM491.467 222.319C486.586 223.813 481.886 227.414 479.671 231.354C477.111 235.908 477.328 243.921 480.112 247.704C482.362 250.762 488.354 254.024 496.04 256.375C505.415 259.243 507.564 260.604 507.564 263.672C507.564 268.403 502.876 270.762 495.838 269.573C492.354 268.984 487.56 265.471 486.697 262.873C486.362 261.862 485.161 262.217 481.14 264.518C478.319 266.132 476.011 268.017 476.011 268.707C476.011 269.397 477.293 271.422 478.859 273.206C489.844 285.717 513.862 283.757 519.613 269.88C522.221 263.586 521.112 258.092 516.253 253.233C513.084 250.064 511.024 249.016 503.165 246.575C490.535 242.651 487.432 239.16 492.811 234.93C496.798 231.793 504.759 233.193 507.824 237.57L509.221 239.565L513.969 236.989C516.58 235.573 518.861 233.958 519.037 233.4C519.593 231.651 514.728 226.756 510.106 224.415C505.062 221.858 496.218 220.864 491.467 222.319ZM543.031 222.578C534.408 225.406 529.882 231.074 529.976 238.931C530.087 248.266 533.651 251.666 548.374 256.483C557.866 259.589 559.853 260.906 559.853 264.089C559.853 272.505 541.773 271.229 538.901 262.61C538.561 261.59 527.398 267.142 527.398 268.332C527.398 270.301 536.071 278.205 539.82 279.651C546.122 282.082 557.171 281.82 562.789 279.106C572.165 274.574 575.518 265.326 571.026 256.383C568.926 252.201 564.499 249.395 555.617 246.62C545.254 243.38 542.724 241.878 542.724 238.965C542.724 232.445 553.664 231.007 559.088 236.814L561.621 239.525L566.597 236.677C569.334 235.112 571.573 233.594 571.573 233.306C571.573 231.618 566.634 226.802 562.716 224.67C557.154 221.643 548.644 220.738 543.031 222.578ZM116.298 251.543V279.941H122.609H128.92V251.543V223.145H122.609H116.298V251.543ZM164.079 224.056C164.079 224.854 173.435 255.211 179.983 275.659L181.354 279.941H187.537H193.721L196.006 272.504C197.263 268.412 199.878 260 201.816 253.809L205.339 242.554L209.106 254.711C211.177 261.398 213.795 269.709 214.921 273.18L216.97 279.49H223.189H229.409L238.212 251.543C243.053 236.172 247.015 223.493 247.017 223.37C247.019 223.246 244.026 223.145 240.366 223.145H233.711L228.37 242.197L223.028 261.249L217.264 242.197L211.499 223.145H205.419H199.339L196.202 233.287C188.573 257.95 187.692 260.488 187.2 259.206C186.915 258.462 184.496 250.146 181.823 240.724L176.964 223.595L170.522 223.33C166.283 223.156 164.079 223.404 164.079 224.056ZM256.036 251.543V279.941H262.347H268.658V251.543V223.145H262.347H256.036V251.543ZM79.0511 234.925C87.7843 238.234 91.8673 250.529 87.3398 259.882C82.6464 269.577 68.944 272.114 60.3479 264.881C51.6327 257.548 52.4928 242.99 62.0139 236.684C65.3901 234.447 67.0454 233.963 71.3168 233.963C74.1747 233.963 77.6555 234.396 79.0511 234.925ZM384.271 236.879C389.19 240.631 391.613 246.431 391.015 253.025C390.454 259.209 388.183 263.138 383.257 266.452C380.567 268.262 378.87 268.647 373.545 268.659C367.661 268.671 366.787 268.425 363.628 265.872C358.292 261.559 356.557 257.933 356.557 251.092C356.557 243.973 358.866 239.646 364.512 236.187C367.786 234.181 369.111 233.916 374.672 234.157C379.985 234.388 381.608 234.847 384.271 236.879Z" fill="#5AB8D4"/>
<path d="M233.465 19.6849C241.862 11.2881 254.074 4.86817 267.44 1.82295C281.662 -1.41637 304.2 -0.214257 316.535 4.44247C329.526 9.34711 337.14 14.7394 353.015 30.2754C369.853 46.7558 377.928 50.8857 393.2 50.8335C406.546 50.7878 411.861 48.4342 423.858 37.2499C433.118 28.6183 433.25 29.8873 424.97 47.9824C418.777 61.5204 407.38 73.437 394.95 79.3676C372.97 89.857 340.45 88.9224 317.674 77.1444C314.956 75.7401 304.902 67.2911 295.33 58.3707C275.418 39.8123 269.915 36.6481 255.91 35.702C243.204 34.8441 230.065 40.3702 220.691 50.5155C214.365 57.3611 214.333 57.3741 215.512 52.5119C217.936 42.5101 226.744 26.4049 233.465 19.6849Z" fill="#5AB8D4"/>
<path d="M168.706 100.041C178 93.3117 188.761 89.1671 201.107 87.5654C220.629 85.0307 244.53 89.6727 258.857 98.7807C263.02 101.426 273.009 109.83 281.054 117.455C299.237 134.684 305.65 138.143 319.413 138.143C332.317 138.143 343.557 132.96 353.101 122.606C356.765 118.632 359.761 115.789 359.761 116.29C359.761 119.203 350.411 139.998 346.565 145.638C334.15 163.841 312.697 173.916 286.173 173.999C261.27 174.076 246.109 167.177 222.118 144.846C201.172 125.349 196.4 122.771 181.148 122.7C167.22 122.637 159.93 125.842 148.807 136.92C139.984 145.71 139.847 144.441 147.763 127.143C153.759 114.036 159.325 106.833 168.706 100.041Z" fill="#5AB8D4"/>
</svg>
